# xmcd CD database file
#
# Track frame offsets:
#	150
#	4330
#	23615
#	39892
#	62867
#	89722
#	109947
#	130655
#	146037
#	162010
#	170957
#	181070
#
# Disc length: 2612 seconds
#
# Revision: 0
# Processed by: cddbd v1.5PL3 Copyright (c) Steve Scherf et al.
# Submitted via: CDex 1.50beta10
#
DISCID=9e0a320c
DTITLE=近藤房之助 - in a deeper pocket
DYEAR=1900
DGENRE=R&B
TTITLE0=Introduction
TTITLE1=In a Deeper Pocket
TTITLE2=赤ん坊のように
TTITLE3=いつか二人で
TTITLE4=天国へ
TTITLE5=ブルーズを歌おう
TTITLE6=電話
TTITLE7=イカレポンチだから
TTITLE8=Tear of Joy
TTITLE9=古ぼけた写真
TTITLE10=夢旅行
TTITLE11=しあわせ
EXTD=
EXTT0=
EXTT1=
EXTT2=
EXTT3=
EXTT4=
EXTT5=
EXTT6=
EXTT7=
EXTT8=
EXTT9=
EXTT10=
EXTT11=
PLAYORDER=
